<?xml version="1.0" encoding="UTF-8"?><svg id="Layer_2" xmlns="http://www.w3.org/2000/svg" xmlns:xlink="http://www.w3.org/1999/xlink" viewBox="0 0 82.85 17.24"><defs><style>.cls-1{fill:none;}.cls-2{clip-path:url(#clippath);}.cls-3{fill:#231f20;}</style><clipPath id="clippath"><rect class="cls-1" width="82.85" height="17.24"/></clipPath></defs><g id="Layer_1-2"><g class="cls-2"><path class="cls-3" d="M82.53,11.97c-.21-.41-.54-.77-.99-1.09-.44-.31-1.16-.66-2.14-1.04-1.17-.45-1.92-.81-2.27-1.06-.35-.26-.52-.57-.52-.94,0-.76,.67-1.14,2-1.14,.87,0,1.95,.27,3.23,.8l.82-1.9c-1.25-.57-2.57-.85-3.96-.85s-2.53,.28-3.35,.84c-.82,.56-1.23,1.35-1.23,2.37,0,.85,.24,1.53,.72,2.06,.48,.53,1.41,1.06,2.78,1.59,.7,.27,1.25,.52,1.64,.73,.39,.21,.68,.42,.85,.62,.17,.2,.26,.45,.26,.75,0,.94-.78,1.41-2.33,1.41-1.2,0-2.5-.32-3.9-.97v2.18c.96,.48,2.23,.72,3.81,.72s2.78-.31,3.63-.93c.85-.62,1.27-1.51,1.27-2.67,0-.57-.11-1.07-.32-1.48M63.96,3.28h1.78c1.17,0,2.03,.22,2.58,.67,.55,.45,.83,1.12,.83,2.02,0,.97-.31,1.69-.92,2.15-.62,.46-1.58,.69-2.9,.69h-1.37V3.28Zm6.37-.95c-.98-.8-2.45-1.2-4.41-1.2h-4.52v15.7h2.57v-5.88h1.63c1.98,0,3.51-.44,4.59-1.31,1.07-.87,1.61-2.13,1.61-3.77s-.49-2.74-1.47-3.55m-14.37,1.06c.59,.19,1.15,.41,1.68,.66l.92-2.14c-1.36-.67-2.84-1.01-4.45-1.01s-2.85,.33-3.99,.98c-1.13,.65-2,1.59-2.59,2.81-.6,1.23-.9,2.65-.9,4.29,0,2.59,.61,4.58,1.85,5.98,1.23,1.39,3,2.09,5.3,2.09,1.56,0,2.96-.23,4.19-.7v-2.2c-.67,.21-1.32,.38-1.95,.51-.62,.13-1.27,.2-1.93,.2-1.54,0-2.72-.49-3.53-1.48-.81-.99-1.22-2.45-1.22-4.37s.42-3.28,1.27-4.33c.85-1.05,2.01-1.57,3.48-1.57,.65,0,1.27,.1,1.86,.28m-12.8-2.26h-2.58V7.55h-7.24V1.13h-2.57v15.7h2.57v-7.08h7.24v7.08h2.58V1.13Z"/><path class="cls-3" d="M6.56,16.12h4.11v-4.89c0-.31,.25-.56,.56-.56h4.89V6.56h-4.89c-.31,0-.56-.25-.56-.56V1.11H6.56V6.01c0,.31-.25,.56-.56,.56H1.11v4.11H6.01c.31,0,.56,.25,.56,.56v4.89Zm4.67,1.11H6.01c-.31,0-.56-.25-.56-.56v-4.89H.56C.25,11.79,0,11.54,0,11.23V6.01C0,5.7,.25,5.45,.56,5.45H5.45V.56c0-.31,.25-.56,.56-.56h5.22c.31,0,.56,.25,.56,.56V5.45h4.89c.31,0,.56,.25,.56,.56v5.22c0,.31-.25,.56-.56,.56h-4.89v4.89c0,.31-.25,.56-.56,.56"/></g></g></svg>