<?xml version="1.0" encoding="UTF-8"?><svg id="Layer_2" xmlns="http://www.w3.org/2000/svg" xmlns:xlink="http://www.w3.org/1999/xlink" viewBox="0 0 154.2 54.97"><defs><style>.cls-1{fill:none;}.cls-2{clip-path:url(#clippath);}.cls-3{fill:#ec1d24;}.cls-4{fill:#fff;}.cls-5{clip-path:url(#clippath-1);}</style><clipPath id="clippath"><rect class="cls-1" y="0" width="154.2" height="54.97"/></clipPath><clipPath id="clippath-1"><rect class="cls-1" width="154.2" height="54.97"/></clipPath></defs><g id="Layer_1-2"><g class="cls-2"><path class="cls-4" d="M21.2,17.33C8.74,25.92,0,37.51,0,37.51l16.34,11.05s1.42-3.53,1.46-3.63c3.89,8.01,12.22,10.16,16.88,10.04H119.39c4.71,.13,13.13-1.99,17.05-9.99,.13,.33,1.41,3.44,1.41,3.44l16.35-10.93s-8.87-11.6-21.42-20.18C121.21,9.42,102.13,0,76.9,0S32.68,9.42,21.2,17.33"/></g><polygon class="cls-3" points="52.15 26.1 53.57 23.08 35.44 23.08 34.03 26.1 41.05 26.1 33.78 40.88 38.47 40.88 45.74 26.1 52.15 26.1"/><g class="cls-5"><path class="cls-3" d="M122.12,38.22s-.91,.42-1.31,.02c-.39-.41-.04-1.17-.04-1.17l3.83-8.05h-3.9l-.6,1.07c-2.28-2.01-6.57-.97-9.23,1.81-1.53,1.6-2.4,3.5-2.52,5.15-.44,.29-1.16,.73-2.1,1.1,0,0-.91,.42-1.31,0-.4-.41-.04-1.17-.04-1.17l6.8-13.99h-3.9l-3.57,7.02c-2.28-2-6.57-.97-9.23,1.81-.54,.56-.99,1.17-1.36,1.78h0s-.05,.08-.08,.13c-.08,.15-.17,.29-.24,.43-2.12,3.67-4.76,4.29-4.76,4.29-5.58,1.67-6.22-1.06-6.22-1.06,6.25-2.31,8.6-5.05,8.38-7.14-.22-2.1-3.09-2.2-3.09-2.2-4.72-.28-8.81,3.02-9.8,6.25-.3,.99-.39,2-.21,2.92-1.89,1.01-2.98,1.17-2.98,1.17-1.57,.5-1.77-.24-1.96-.71-.19-.46-.9-4.48-.9-4.48l6.63-4.34h-4.06l-4.98,3.09c-1.12,.46-.69-.71-.69-.71l4.07-8.24h-3.9l-6.6,13.37c-.76,.45-2.28,1.34-3.39,1.78,0,0-.91,.42-1.31,0-.4-.41-.04-1.17-.04-1.17l3.83-8.05h-3.9l-.6,1.07c-2.28-2-6.57-.97-9.22,1.81-2.66,2.77-3.34,6.44-1.52,8.18,1.45,1.39,4.07,1.14,6.42-.45,0,0,.6-.51,.92,.09,.33,.62,1.68,2.02,4.78,.8,.99-.39,1.89-.84,2.65-1.26l-.81,1.64h3.91l1.95-3.96,1.7-1.08s.52-.41,.73,.47c0,0,.84,3.33,1.17,3.76,.33,.44,.98,1.41,3.72,.62,2.1-.6,4.07-1.35,5.1-1.79,.92,1.26,2.69,2.13,5.58,2.13,4.29,0,7.31-2.05,8.59-3.11,.09,.85,.42,1.59,.99,2.14,1.46,1.39,4.07,1.14,6.42-.45,0,0,.59-.51,.92,.09,.33,.62,1.68,2.02,4.78,.8,1.42-.56,2.38-1.1,3-1.52,.17,.44,.42,.83,.76,1.15,1.46,1.39,4.07,1.13,6.42-.45,0,0,.59-.51,.92,.09,.33,.62,1.68,2.02,4.77,.8,3.1-1.22,3.99-2.33,3.99-2.33l-.78-1.38c-.11,.06-1.06,.82-2.55,1.41m-67.77-2.31c-1.35,1.9-3.26,2.86-4.27,2.15-1.01-.72-.73-2.83,.62-4.74,1.35-1.9,3.26-2.86,4.26-2.14,1.01,.71,.73,2.84-.62,4.73m27.68-1.38s.87-2.95,3.72-4.12c0,0,.81-.28,1.24,.07,0,0,.61,.59-.12,1.67-.65,.96-2.2,2.71-3.89,3.3,0,0-1.53,.66-.95-.92m19.71,1.38c-1.35,1.9-3.26,2.86-4.27,2.15-1.01-.72-.73-2.83,.62-4.74,1.35-1.9,3.26-2.86,4.27-2.14,1.01,.71,.73,2.84-.62,4.73m15.87,.07c-1.35,1.9-3.26,2.85-4.27,2.15-1.01-.72-.73-2.84,.62-4.73,1.35-1.9,3.26-2.85,4.26-2.14,1.01,.72,.73,2.84-.62,4.73"/><path class="cls-3" d="M76.9,3.21C29.64,3.21,4.58,36.73,4.58,36.73l10.28,6.94s1.24-3.11,4.09-7.56c.01,1.11,.16,1.9,.16,1.9,1.82,14.08,15.51,13.75,15.51,13.75H119.48s13.87,.38,15.68-13.7c0,0,.14-.73,.15-1.84,2.79,4.34,4.02,7.36,4.02,7.36l10.26-6.87S124.16,3.21,76.9,3.21m56.16,34.64s-1.85,10.78-13.76,10.78H34.57c-11.91,0-13.59-10.88-13.59-10.88-.46-2.89,.1-4.86,.99-6.23C30.55,20.23,47.52,5.07,76.86,5.07s46.7,15.38,55.28,26.67c.99,1.25,1.36,3.31,.92,6.1"/></g></g></svg>