<?xml version="1.0" encoding="UTF-8"?><svg id="Layer_2" xmlns="http://www.w3.org/2000/svg" xmlns:xlink="http://www.w3.org/1999/xlink" viewBox="0 0 200.05 63.1"><defs><style>.cls-1{fill:none;}.cls-2{fill:url(#linear-gradient);}.cls-3{clip-path:url(#clippath);}.cls-4{fill:#e83969;}.cls-5{fill:#7e8389;}.cls-6{fill:#606a73;}.cls-7{clip-path:url(#clippath-1);}.cls-8{clip-path:url(#clippath-2);}</style><clipPath id="clippath"><rect class="cls-1" width="200.05" height="63.1"/></clipPath><clipPath id="clippath-1"><path class="cls-1" d="M144.5,5.43s31.1,23.68,48.86,1.71c.54-.68,.77-1.1,.73-1.33,0,.02-.01,.04-.02,.06-.11,.23-.41,.56-.91,1.03-7.65,7.04-14.74,6.52-20.3,3.83-8.37,.93-18.37,.2-28.36-5.3Z"/></clipPath><linearGradient id="linear-gradient" x1="-569.77" y1="409.78" x2="-568.77" y2="409.78" gradientTransform="translate(28426.08 -20322.81) scale(49.64)" gradientUnits="userSpaceOnUse"><stop offset="0" stop-color="#bbdfdd"/><stop offset=".55" stop-color="#87cdc9"/><stop offset="1" stop-color="#5bbeb9"/></linearGradient><clipPath id="clippath-2"><rect class="cls-1" width="200.05" height="63.1"/></clipPath></defs><g id="Layer_1-2"><polygon class="cls-6" points="0 20.14 0 21.92 6.52 21.92 6.52 39.89 8.47 39.89 8.47 21.92 14.98 21.92 14.98 20.14 0 20.14"/><path class="cls-6" d="M37.48,39.89l-2.34-5.25h-10.95l-2.32,5.25h-2.09l8.89-19.72h2.03l8.89,19.72h-2.12Zm-12.53-7h9.43l-4.74-10.67-4.68,10.67Z"/><polygon class="cls-6" points="64.29 39.89 61.89 39.89 54.41 30.3 50.4 34.64 50.4 39.89 48.46 39.89 48.46 20.14 50.4 20.14 50.4 32.16 61.35 20.14 63.72 20.14 55.79 28.77 64.29 39.89"/><polygon class="cls-6" points="74.22 20.17 76.17 20.17 76.17 29.2 88.5 29.2 88.5 20.17 90.45 20.17 90.45 39.89 88.5 39.89 88.5 30.95 76.17 30.95 76.17 39.89 74.22 39.89 74.22 20.17"/><polygon class="cls-6" points="101.37 20.17 116.92 20.17 116.92 21.66 103.54 38.14 117.03 38.14 117.03 39.89 101 39.89 101 38.37 114.41 21.92 101.37 21.92 101.37 20.17"/><polygon class="cls-6" points="141.87 20.17 134.27 32.87 134.27 39.89 132.33 39.89 132.33 32.87 124.62 20.17 126.65 20.17 133.32 30.78 139.83 20.17 141.87 20.17"/><g class="cls-3"><path class="cls-6" d="M163.76,39.89l-4.26-6.43c-.6,.04-1.06,.06-1.38,.06h-5.42v6.38h-1.95V20.17h7.37c2.46,0,4.37,.57,5.71,1.71,1.35,1.14,2.02,2.75,2.02,4.84,0,1.64-.4,3-1.19,4.09-.79,1.09-1.92,1.85-3.39,2.29l4.74,6.8h-2.26Zm-5.64-8.13c1.88,0,3.33-.43,4.35-1.28,1.01-.86,1.52-2.09,1.52-3.71s-.51-2.78-1.52-3.61c-1.02-.83-2.47-1.24-4.35-1.24h-5.42v9.85h5.42Z"/><path class="cls-4" d="M190.9,21.34c1.57,.89,2.82,2.1,3.74,3.63,.92,1.53,1.38,3.2,1.38,5.02s-.46,3.51-1.38,5.05c-.92,1.54-2.17,2.77-3.74,3.67-1.57,.9-3.3,1.35-5.18,1.35s-3.61-.45-5.18-1.35c-1.57-.9-2.82-2.13-3.74-3.67-.92-1.54-1.38-3.23-1.38-5.05s.46-3.5,1.38-5.02c.92-1.52,2.17-2.73,3.74-3.63,1.57-.89,3.3-1.34,5.18-1.34s3.61,.45,5.18,1.34m-9.33,1.51c-1.28,.73-2.3,1.73-3.05,2.99-.75,1.26-1.13,2.64-1.13,4.15s.38,2.9,1.13,4.18c.75,1.28,1.77,2.29,3.05,3.03,1.28,.74,2.67,1.11,4.18,1.11s2.87-.37,4.13-1.11c1.27-.74,2.28-1.75,3.03-3.03,.75-1.28,1.13-2.67,1.13-4.18s-.38-2.89-1.13-4.15c-.75-1.26-1.76-2.26-3.03-2.99-1.27-.73-2.65-1.1-4.13-1.1s-2.9,.37-4.18,1.1"/><rect class="cls-5" x="6.6" y="46.2" width=".71" height="13.48"/><path class="cls-5" d="M13.42,58.35c0,.71,.02,1.14,.04,1.33h-.69c-.06-.29-.08-.68-.08-.87-.29,.85-.96,1.02-1.56,1.02-1.33,0-1.86-1.12-1.86-2.64v-.17c0-1.97,1.08-2.9,2.78-2.9h.64v-1.86c0-1-.21-1.7-1.16-1.7s-1.24,.72-1.24,1.64v.36h-.71v-.36c0-1.3,.52-2.34,1.97-2.34s1.87,1.08,1.87,2.36v6.12Zm-.71-3.57h-.64c-1.34,0-2.07,.6-2.07,2.2v.17c0,1.06,.29,1.99,1.22,1.99,1.16,0,1.49-1.01,1.49-2.61v-1.76Z"/><path class="cls-5" d="M15.89,52.92c0-1.91,0-2.38-.02-2.9h.68c.02,.21,.04,.5,.04,1.06,.29-.87,.93-1.22,1.76-1.22,.93,0,1.82,.48,1.82,2.2v7.61h-.71v-7.45c0-1.01-.33-1.66-1.22-1.66-.95,0-1.62,.45-1.62,2.84v6.28h-.71v-6.76Z"/><path class="cls-5" d="M26.28,58.35c0,.71,.02,1.14,.04,1.33h-.69c-.06-.29-.08-.68-.08-.87-.29,.85-.96,1.02-1.56,1.02-1.33,0-1.86-1.12-1.86-2.64v-.17c0-1.97,1.08-2.9,2.78-2.9h.64v-1.86c0-1-.21-1.7-1.16-1.7s-1.24,.72-1.24,1.64v.36h-.71v-.36c0-1.3,.52-2.34,1.97-2.34s1.87,1.08,1.87,2.36v6.12Zm-.71-3.57h-.64c-1.33,0-2.07,.6-2.07,2.2v.17c0,1.06,.29,1.99,1.22,1.99,1.16,0,1.49-1.01,1.49-2.61v-1.76Z"/><path class="cls-5" d="M32.8,46.2v11.2c0,.79,0,1.72,.02,2.28h-.67c-.02-.12-.04-.66-.04-.99-.19,.56-.62,1.14-1.66,1.14-1.51,0-1.99-1.18-1.99-3.01v-4.15c0-1.74,.72-2.8,2.12-2.8,1.02,0,1.35,.5,1.51,.77v-4.44h.72Zm-3.61,6.51v4.04c0,1.6,.41,2.4,1.31,2.4,1.26,0,1.58-1.26,1.58-2.84v-3.4c0-1.09-.11-2.34-1.53-2.34-.95,0-1.37,.83-1.37,2.14"/><path class="cls-5" d="M35.68,54.87v1.76c0,1.2,.21,2.55,1.41,2.55,1.08,0,1.33-.81,1.33-1.99v-.11h.71v.1c0,1.24-.31,2.66-2.08,2.66-1.53,0-2.08-1.1-2.08-3.07v-4.08c0-1.62,.62-2.82,2.14-2.82,1.64,0,2.05,1.37,2.05,2.84v2.16h-3.47Zm2.76-.66v-1.45c0-.91-.08-2.24-1.35-2.24s-1.41,1.1-1.41,2.26v1.43h2.76Z"/><rect class="cls-5" x="41.28" y="46.2" width=".71" height="13.48"/><path class="cls-5" d="M48.62,57.3c0,1.06,0,1.97,.02,2.38h-.68c-.02-.15-.04-.68-.04-1.1-.25,.91-.79,1.26-1.66,1.26-.68,0-1.83-.17-1.83-2.41v-7.4h.71v7.21c0,1.43,.37,1.93,1.24,1.93,.73,0,1.53-.43,1.53-2.92v-6.22h.71v7.28Z"/><path class="cls-5" d="M51.07,52.78c0-1.56,0-2.26-.02-2.76h.68c.04,.27,.04,.66,.04,.97,.23-.66,.71-1.12,1.6-1.12,.7,0,1.26,.27,1.45,1.2,.25-.66,.75-1.2,1.7-1.2,.83,0,1.72,.31,1.72,2.14v7.67h-.71v-7.47c0-.85-.12-1.64-1.1-1.64-1.16,0-1.41,1.12-1.41,2.26v6.86h-.72v-7.36c0-1.22-.27-1.76-1.14-1.76-1.1,0-1.37,1.16-1.37,2.45v6.66h-.71v-6.9Z"/><path class="cls-5" d="M64.36,58.35c0,.71,.02,1.14,.04,1.33h-.69c-.06-.29-.08-.68-.08-.87-.29,.85-.96,1.02-1.56,1.02-1.33,0-1.86-1.12-1.86-2.64v-.17c0-1.97,1.08-2.9,2.78-2.9h.64v-1.86c0-1-.21-1.7-1.16-1.7s-1.24,.72-1.24,1.64v.36h-.71v-.36c0-1.3,.52-2.34,1.97-2.34s1.87,1.08,1.87,2.36v6.12Zm-.71-3.57h-.64c-1.33,0-2.07,.6-2.07,2.2v.17c0,1.06,.29,1.99,1.22,1.99,1.16,0,1.49-1.01,1.49-2.61v-1.76Z"/><path class="cls-5" d="M66.83,46.2h.71v4.79c.21-.6,.69-1.12,1.74-1.12,1.33,0,1.89,1.08,1.89,2.66v4.15c0,1.72-.44,3.11-2.09,3.11-.87,0-1.39-.44-1.6-1.12,0,.43,0,.68-.04,1h-.64c.02-.42,.02-1.29,.02-2.63v-10.85Zm3.61,10.58v-4.15c0-1.34-.39-2.07-1.31-2.07-1.45,0-1.6,1.51-1.6,3.09v2.7c0,1.89,.44,2.75,1.55,2.75,.91,0,1.37-.73,1.37-2.32"/><path class="cls-5" d="M77.76,56.97v.41c0,1.31,.6,1.8,1.37,1.8,.97,0,1.33-.62,1.33-1.78,0-1.28-.39-1.74-1.41-2.43-1.26-.85-1.82-1.51-1.82-2.8,0-1.2,.48-2.3,1.95-2.3,1.59,0,1.89,1.18,1.89,2.28v.5h-.71v-.46c0-.98-.25-1.66-1.22-1.66-.83,0-1.18,.56-1.18,1.56s.29,1.41,1.35,2.15c1.12,.77,1.87,1.43,1.87,3.03s-.64,2.57-2.12,2.57c-1.58,0-2.05-1.14-2.05-2.41v-.44h.73Z"/><path class="cls-5" d="M87.13,57.3c0,1.06,0,1.97,.02,2.38h-.68c-.02-.15-.04-.68-.04-1.1-.25,.91-.79,1.26-1.66,1.26-.68,0-1.83-.17-1.83-2.41v-7.4h.71v7.21c0,1.43,.37,1.93,1.24,1.93,.73,0,1.53-.43,1.53-2.92v-6.22h.71v7.28Z"/><path class="cls-5" d="M89.58,46.2h.71v4.79c.21-.6,.69-1.12,1.74-1.12,1.33,0,1.89,1.08,1.89,2.66v4.15c0,1.72-.44,3.11-2.09,3.11-.87,0-1.39-.44-1.6-1.12,0,.43,0,.68-.04,1h-.64c.02-.42,.02-1.29,.02-2.63v-10.85Zm3.61,10.58v-4.15c0-1.34-.39-2.07-1.31-2.07-1.45,0-1.6,1.51-1.6,3.09v2.7c0,1.89,.44,2.75,1.55,2.75,.91,0,1.37-.73,1.37-2.32"/><path class="cls-5" d="M99.91,56.8v.14c0,1.58-.4,2.9-2.09,2.9-1.51,0-2.03-1.1-2.03-3.01v-4.23c0-1.7,.68-2.72,2.11-2.72,1.54,0,2.01,1.16,2.01,2.55v.42h-.73v-.25c0-1.02-.17-2.07-1.29-2.07-.95,0-1.35,.7-1.35,2.2v4.1c0,1.1,.21,2.36,1.31,2.36,.93,0,1.33-.54,1.33-2.24v-.14h.73Z"/><path class="cls-5" d="M106.05,57.3c0,1.06,0,1.97,.02,2.38h-.68c-.02-.15-.04-.68-.04-1.1-.25,.91-.79,1.26-1.66,1.26-.68,0-1.83-.17-1.83-2.41v-7.4h.71v7.21c0,1.43,.37,1.93,1.24,1.93,.73,0,1.53-.43,1.53-2.92v-6.22h.71v7.28Z"/><path class="cls-5" d="M107.58,50.02h1.2v-2.43h.69v2.43h1.53v.66h-1.53v7.34c0,.54,.11,1.14,.75,1.14,.19,0,.52-.02,.69-.06v.6c-.25,.08-.62,.1-.91,.1-.64,0-1.24-.39-1.24-1.64v-7.48h-1.2v-.66Z"/><path class="cls-5" d="M116.36,58.35c0,.71,.02,1.14,.04,1.33h-.69c-.06-.29-.08-.68-.08-.87-.29,.85-.96,1.02-1.56,1.02-1.33,0-1.86-1.12-1.86-2.64v-.17c0-1.97,1.08-2.9,2.78-2.9h.64v-1.86c0-1-.21-1.7-1.16-1.7s-1.24,.72-1.24,1.64v.36h-.71v-.36c0-1.3,.52-2.34,1.97-2.34s1.87,1.08,1.87,2.36v6.12Zm-.71-3.57h-.64c-1.33,0-2.07,.6-2.07,2.2v.17c0,1.06,.29,1.99,1.22,1.99,1.16,0,1.49-1.01,1.49-2.61v-1.76Z"/><path class="cls-5" d="M118.83,52.92c0-1.91,0-2.38-.02-2.9h.68c.02,.21,.04,.5,.04,1.06,.29-.87,.93-1.22,1.76-1.22,.93,0,1.82,.48,1.82,2.2v7.61h-.71v-7.45c0-1.01-.33-1.66-1.22-1.66-.95,0-1.62,.45-1.62,2.84v6.28h-.71v-6.76Z"/><path class="cls-5" d="M125.98,54.87v1.76c0,1.2,.21,2.55,1.41,2.55,1.08,0,1.33-.81,1.33-1.99v-.11h.71v.1c0,1.24-.31,2.66-2.08,2.66-1.53,0-2.08-1.1-2.08-3.07v-4.08c0-1.62,.62-2.82,2.14-2.82,1.64,0,2.05,1.37,2.05,2.84v2.16h-3.47Zm2.76-.66v-1.45c0-.91-.08-2.24-1.35-2.24s-1.41,1.1-1.41,2.26v1.43h2.76Z"/><path class="cls-5" d="M135.58,52.51v4.4c0,2.12-.95,2.91-2.2,2.91s-2.14-.73-2.14-2.82v-4.48c0-1.6,.75-2.66,2.2-2.66s2.14,1.04,2.14,2.65m-3.61,.04v4.48c0,1.35,.48,2.14,1.43,2.14,.87,0,1.45-.56,1.45-2.14v-4.48c0-1.18-.45-2.03-1.43-2.03s-1.45,.75-1.45,2.03"/><path class="cls-5" d="M141.91,57.3c0,1.06,0,1.97,.02,2.38h-.68c-.02-.15-.04-.68-.04-1.1-.25,.91-.79,1.26-1.66,1.26-.68,0-1.83-.17-1.83-2.41v-7.4h.71v7.21c0,1.43,.37,1.93,1.24,1.93,.73,0,1.53-.43,1.53-2.92v-6.22h.71v7.28Z"/><path class="cls-5" d="M144.32,56.97v.41c0,1.31,.6,1.8,1.37,1.8,.97,0,1.33-.62,1.33-1.78,0-1.28-.39-1.74-1.41-2.43-1.26-.85-1.82-1.51-1.82-2.8,0-1.2,.48-2.3,1.95-2.3,1.59,0,1.89,1.18,1.89,2.28v.5h-.71v-.46c0-.98-.25-1.66-1.22-1.66-.83,0-1.18,.56-1.18,1.56s.29,1.41,1.35,2.15c1.12,.77,1.87,1.43,1.87,3.03s-.64,2.57-2.12,2.57c-1.58,0-2.05-1.14-2.05-2.41v-.44h.73Z"/><path class="cls-5" d="M152.9,50.02h.71v9.66h-.71v-9.66Zm0-3.82h.71v1.85h-.71v-1.85Z"/><path class="cls-5" d="M156.07,52.92c0-1.91,0-2.38-.02-2.9h.68c.02,.21,.04,.5,.04,1.06,.29-.87,.93-1.22,1.76-1.22,.93,0,1.82,.48,1.82,2.2v7.61h-.71v-7.45c0-1.01-.33-1.66-1.22-1.66-.95,0-1.62,.45-1.62,2.84v6.28h-.71v-6.76Z"/><path class="cls-5" d="M163.6,50.02v10.97c0,1.3-.23,2.11-1.37,2.11-.06,0-.21,0-.42-.02v-.71c.15,.02,.25,.02,.35,.02,.5,0,.73-.1,.73-1.26v-11.11h.71Zm-.65-3.82h.71v1.85h-.71v-1.85Z"/><path class="cls-5" d="M166.53,54.87v1.76c0,1.2,.21,2.55,1.41,2.55,1.08,0,1.33-.81,1.33-1.99v-.11h.71v.1c0,1.24-.31,2.66-2.08,2.66-1.53,0-2.09-1.1-2.09-3.07v-4.08c0-1.62,.62-2.82,2.14-2.82,1.64,0,2.05,1.37,2.05,2.84v2.16h-3.48Zm2.76-.66v-1.45c0-.91-.08-2.24-1.35-2.24s-1.41,1.1-1.41,2.26v1.43h2.76Z"/><path class="cls-5" d="M175.9,56.8v.14c0,1.58-.4,2.9-2.09,2.9-1.51,0-2.03-1.1-2.03-3.01v-4.23c0-1.7,.68-2.72,2.11-2.72,1.54,0,2.01,1.16,2.01,2.55v.42h-.73v-.25c0-1.02-.17-2.07-1.29-2.07-.95,0-1.35,.7-1.35,2.2v4.1c0,1.1,.21,2.36,1.31,2.36,.93,0,1.33-.54,1.33-2.24v-.14h.73Z"/><path class="cls-5" d="M177.13,50.02h1.2v-2.43h.7v2.43h1.52v.66h-1.52v7.34c0,.54,.11,1.14,.75,1.14,.19,0,.52-.02,.7-.06v.6c-.25,.08-.62,.1-.91,.1-.64,0-1.24-.39-1.24-1.64v-7.48h-1.2v-.66Z"/><path class="cls-5" d="M182.12,50.02h.71v9.66h-.71v-9.66Zm0-3.82h.71v1.85h-.71v-1.85Z"/><path class="cls-5" d="M189.34,52.51v4.4c0,2.12-.95,2.91-2.2,2.91s-2.14-.73-2.14-2.82v-4.48c0-1.6,.75-2.66,2.2-2.66s2.14,1.04,2.14,2.65m-3.61,.04v4.48c0,1.35,.48,2.14,1.43,2.14,.87,0,1.45-.56,1.45-2.14v-4.48c0-1.18-.45-2.03-1.43-2.03s-1.45,.75-1.45,2.03"/><path class="cls-5" d="M191.5,52.92c0-1.91,0-2.38-.02-2.9h.68c.02,.21,.04,.5,.04,1.06,.29-.87,.93-1.22,1.76-1.22,.93,0,1.82,.48,1.82,2.2v7.61h-.71v-7.45c0-1.01-.33-1.66-1.22-1.66-.95,0-1.62,.45-1.62,2.84v6.28h-.71v-6.76Z"/></g><g class="cls-7"><rect class="cls-2" x="144.5" y="5.43" width="49.64" height="23.68"/></g><g class="cls-8"><path class="cls-4" d="M193.46,5.46c-3.74,.2-21.42,6.83-32.39-5.46,0,0,0,0,0,0,.67,1.04,15.01,22.65,32.1,6.89,.5-.46,.8-.8,.91-1.02,.03-.07,.04-.15,0-.22-.08-.15-.29-.19-.62-.19"/><path class="cls-6" d="M200.05,22.04c0,1.12-.89,2.04-2.01,2.04s-2.02-.92-2.02-2.04,.91-2.04,2.02-2.04,2.01,.92,2.01,2.04m-.32,0c0-.97-.75-1.72-1.69-1.72s-1.69,.76-1.69,1.72,.74,1.7,1.69,1.7,1.69-.75,1.69-1.7m-1.29,.19l.66,.88h-.43l-.62-.81h-.43v.81h-.36v-2.14s.82,0,.82,0c.43,0,.74,.26,.74,.67,0,.28-.15,.49-.39,.6m-.36-.25c.25,0,.38-.15,.38-.34,0-.21-.14-.36-.38-.36h-.46v.7h.46Z"/></g></g></svg>