<?xml version="1.0" standalone="no"?>
<!DOCTYPE svg PUBLIC "-//W3C//DTD SVG 20010904//EN"
 "http://www.w3.org/TR/2001/REC-SVG-20010904/DTD/svg10.dtd">
<svg version="1.0" xmlns="http://www.w3.org/2000/svg"
 width="671.000000pt" height="671.000000pt" viewBox="0 0 671.000000 671.000000"
 preserveAspectRatio="xMidYMid meet">
<metadata>
Created by potrace 1.14, written by Peter Selinger 2001-2017
</metadata>
<g transform="translate(0.000000,671.000000) scale(0.100000,-0.100000)"
fill="#000000" stroke="none">
<path d="M360 5023 l0 -363 180 0 180 0 0 -360 0 -360 -360 0 -360 0 2 -362 3
-363 720 0 720 0 0 1083 c0 595 -2 1083 -5 1083 -3 1 -247 2 -542 3 l-538 1 0
-362z"/>
<path d="M2170 5350 c0 -19 -1 -181 -1 -360 l-1 -325 361 -3 361 -2 0 362 0
363 -360 0 -360 0 0 -35z"/>
<path d="M3621 5380 c-3 -3 -7 -491 -6 -1085 l0 -1080 705 0 705 0 0 363 0
362 -342 0 -343 0 0 723 0 722 -356 0 c-195 0 -359 -2 -363 -5z"/>
<path d="M2169 3928 c-1 -14 0 -579 0 -663 l1 -50 360 0 360 0 1 155 c0 85 0
247 1 360 l0 205 -361 3 c-285 2 -361 0 -362 -10z"/>
<path d="M4 2271 c-2 -2 -4 -218 -4 -478 l0 -474 243 4 c262 4 277 6 352 42
106 51 167 135 202 276 3 13 7 74 9 134 5 176 -32 301 -116 385 -91 91 -174
111 -462 113 -121 1 -222 0 -224 -2z m488 -221 c79 -39 119 -117 120 -237 2
-85 -7 -134 -31 -181 -45 -87 -113 -117 -279 -121 l-110 -2 0 286 1 287 126
-4 c108 -3 133 -7 173 -28z"/>
<path d="M1249 2005 c-1 -303 -1 -641 0 -667 1 -16 12 -18 96 -18 l95 0 0 475
c0 261 -3 475 -7 476 -5 0 -47 1 -96 2 l-87 2 -1 -270z"/>
<path d="M2240 2268 c-158 -20 -299 -121 -366 -263 -10 -22 -19 -42 -20 -45 0
-3 -6 -23 -12 -45 -20 -66 -15 -196 9 -267 57 -166 201 -289 374 -319 77 -13
205 -7 250 11 81 34 103 45 143 72 l42 29 0 224 0 225 -22 1 c-27 1 -256 1
-279 0 -13 -1 -16 -15 -17 -86 0 -94 -6 -87 78 -89 l45 -1 3 -82 3 -81 -53
-20 c-67 -25 -166 -23 -230 6 -210 93 -211 411 -1 513 86 41 230 30 313 -25
l38 -25 59 65 c32 36 59 71 61 78 3 14 -87 70 -154 96 -79 29 -175 40 -264 28z"/>
<path d="M3118 2269 c-7 -4 -10 -168 -10 -475 l0 -469 95 -3 95 -3 0 471 c0
312 -3 472 -10 476 -14 9 -157 11 -170 3z"/>
<path d="M3883 2272 l-213 -2 0 -90 0 -90 160 0 159 0 0 -342 c0 -189 0 -362
1 -385 l0 -43 94 1 93 1 1 371 c0 205 1 379 1 387 1 13 24 16 156 15 l155 -1
1 26 c3 74 1 142 -5 147 -6 7 -292 9 -603 5z"/>
<path d="M6035 2272 c-20 -3 -20 -9 -20 -475 l0 -472 348 -2 347 -2 0 90 c0
64 -3 89 -12 90 -7 0 -121 1 -253 2 l-240 2 0 383 c0 248 -3 382 -10 383 -34
3 -143 4 -160 1z"/>
<path d="M5022 2158 c-24 -62 -50 -126 -57 -143 -23 -52 -275 -685 -275 -690
0 -3 46 -5 103 -5 l102 0 23 65 c13 36 28 67 33 71 14 8 421 6 429 -3 4 -4 18
-36 30 -70 l23 -63 102 0 103 0 -38 98 c-22 53 -106 266 -188 472 l-149 375
-99 3 -99 2 -43 -112z m220 -325 c36 -93 65 -169 64 -170 -2 -3 -217 -5 -258
-4 -14 1 -8 24 38 139 30 75 59 145 65 154 5 10 9 25 9 33 0 42 23 0 82 -152z"/>
</g>
</svg>
